<mxfile host="app.diagrams.net" agent="Mozilla/5.0 (Windows NT 10.0; Win64; x64) AppleWebKit/537.36 (KHTML, like Gecko) Chrome/139.0.0.0 Safari/537.36 Avast/139.0.0.0" version="28.1.1">
  <diagram name="PÃ¡gina-1" id="TMfoq_PzSvc9NemojxV_">
    <mxGraphModel dx="705" dy="424" grid="1" gridSize="10" guides="1" tooltips="1" connect="1" arrows="1" fold="1" page="1" pageScale="1" pageWidth="827" pageHeight="1169" math="0" shadow="0">
      <root>
        <mxCell id="0" />
        <mxCell id="1" parent="0" />
        <mxCell id="vCl89EuKgAIW0rMiHvJC-1" value="Actor" style="shape=umlActor;verticalLabelPosition=bottom;verticalAlign=top;html=1;outlineConnect=0;" vertex="1" parent="1">
          <mxGeometry x="140" y="170" width="30" height="60" as="geometry" />
        </mxCell>
        <mxCell id="vCl89EuKgAIW0rMiHvJC-2" value="Registrar producto" style="ellipse;whiteSpace=wrap;html=1;" vertex="1" parent="1">
          <mxGeometry x="314" y="30" width="100" height="50" as="geometry" />
        </mxCell>
        <mxCell id="vCl89EuKgAIW0rMiHvJC-3" value="Actualizar stock" style="ellipse;whiteSpace=wrap;html=1;" vertex="1" parent="1">
          <mxGeometry x="305" y="120" width="115" height="50" as="geometry" />
        </mxCell>
        <mxCell id="vCl89EuKgAIW0rMiHvJC-4" value="Consultar producto" style="ellipse;whiteSpace=wrap;html=1;" vertex="1" parent="1">
          <mxGeometry x="310" y="210" width="120" height="50" as="geometry" />
        </mxCell>
        <mxCell id="vCl89EuKgAIW0rMiHvJC-5" value="Generar reportes" style="ellipse;whiteSpace=wrap;html=1;" vertex="1" parent="1">
          <mxGeometry x="310" y="300" width="110" height="50" as="geometry" />
        </mxCell>
        <mxCell id="vCl89EuKgAIW0rMiHvJC-6" value="" style="endArrow=none;html=1;rounded=0;exitX=1;exitY=0.3333333333333333;exitDx=0;exitDy=0;exitPerimeter=0;entryX=0.062;entryY=0.776;entryDx=0;entryDy=0;entryPerimeter=0;" edge="1" parent="1" source="vCl89EuKgAIW0rMiHvJC-1" target="vCl89EuKgAIW0rMiHvJC-2">
          <mxGeometry width="50" height="50" relative="1" as="geometry">
            <mxPoint x="290" y="250" as="sourcePoint" />
            <mxPoint x="340" y="200" as="targetPoint" />
          </mxGeometry>
        </mxCell>
        <mxCell id="vCl89EuKgAIW0rMiHvJC-7" value="" style="endArrow=none;html=1;rounded=0;exitX=1;exitY=0.3333333333333333;exitDx=0;exitDy=0;exitPerimeter=0;entryX=0.028;entryY=0.752;entryDx=0;entryDy=0;entryPerimeter=0;" edge="1" parent="1" source="vCl89EuKgAIW0rMiHvJC-1" target="vCl89EuKgAIW0rMiHvJC-3">
          <mxGeometry width="50" height="50" relative="1" as="geometry">
            <mxPoint x="290" y="250" as="sourcePoint" />
            <mxPoint x="340" y="200" as="targetPoint" />
          </mxGeometry>
        </mxCell>
        <mxCell id="vCl89EuKgAIW0rMiHvJC-8" value="" style="endArrow=none;html=1;rounded=0;entryX=0;entryY=0.5;entryDx=0;entryDy=0;" edge="1" parent="1" target="vCl89EuKgAIW0rMiHvJC-4">
          <mxGeometry width="50" height="50" relative="1" as="geometry">
            <mxPoint x="170" y="190" as="sourcePoint" />
            <mxPoint x="340" y="200" as="targetPoint" />
          </mxGeometry>
        </mxCell>
        <mxCell id="vCl89EuKgAIW0rMiHvJC-9" value="" style="endArrow=none;html=1;rounded=0;exitX=1;exitY=0.3333333333333333;exitDx=0;exitDy=0;exitPerimeter=0;entryX=0;entryY=0;entryDx=0;entryDy=0;" edge="1" parent="1" source="vCl89EuKgAIW0rMiHvJC-1" target="vCl89EuKgAIW0rMiHvJC-5">
          <mxGeometry width="50" height="50" relative="1" as="geometry">
            <mxPoint x="290" y="250" as="sourcePoint" />
            <mxPoint x="340" y="200" as="targetPoint" />
          </mxGeometry>
        </mxCell>
      </root>
    </mxGraphModel>
  </diagram>
</mxfile>
